<svg width="100" height="100" viewBox="0 0 100 100" fill="none" xmlns="http://www.w3.org/2000/svg">
  <path d="M87.5 0H12.5C5.625 0 0 5.625 0 12.5V87.5C0 94.375 5.625 100 12.5 100H87.5C94.375 100 100 94.375 100 87.5V12.5C100 5.625 94.375 0 87.5 0ZM43.75 75C43.75 77.75 41.5 80 38.75 80H21.25C18.5 80 16.25 77.75 16.25 75V25C16.25 22.25 18.5 20 21.25 20H38.75C41.5 20 43.75 22.25 43.75 25V75ZM83.75 55C83.75 57.75 81.5 60 78.75 60H61.25C58.5 60 56.25 57.75 56.25 55V25C56.25 22.25 58.5 20 61.25 20H78.75C81.5 20 83.75 22.25 83.75 25V55Z" fill="currentColor"/>
</svg>

